<?xml version="1.0" standalone="no"?>
<svg xmlns:xlink="http://www.w3.org/1999/xlink" id="wave" style="transform:rotate(0deg); transition: 0.3s" viewBox="0 0 1440 360" version="1.1" xmlns="http://www.w3.org/2000/svg"><defs><linearGradient id="sw-gradient-0" x1="0" x2="0" y1="1" y2="0"><stop stop-color="rgba(255, 255, 255, 1)" offset="0%"/><stop stop-color="rgba(0, 0, 0, 1)" offset="100%"/></linearGradient></defs><path style="transform:translate(0, 0px); opacity:1" fill="url(#sw-gradient-0)" d="M0,72L60,72C120,72,240,72,360,90C480,108,600,144,720,186C840,228,960,276,1080,252C1200,228,1320,132,1440,114C1560,96,1680,156,1800,180C1920,204,2040,192,2160,168C2280,144,2400,108,2520,132C2640,156,2760,240,2880,282C3000,324,3120,324,3240,270C3360,216,3480,108,3600,84C3720,60,3840,120,3960,168C4080,216,4200,252,4320,270C4440,288,4560,288,4680,246C4800,204,4920,120,5040,108C5160,96,5280,156,5400,156C5520,156,5640,96,5760,96C5880,96,6000,156,6120,150C6240,144,6360,72,6480,72C6600,72,6720,144,6840,186C6960,228,7080,240,7200,246C7320,252,7440,252,7560,264C7680,276,7800,300,7920,282C8040,264,8160,204,8280,168C8400,132,8520,120,8580,114L8640,108L8640,360L8580,360C8520,360,8400,360,8280,360C8160,360,8040,360,7920,360C7800,360,7680,360,7560,360C7440,360,7320,360,7200,360C7080,360,6960,360,6840,360C6720,360,6600,360,6480,360C6360,360,6240,360,6120,360C6000,360,5880,360,5760,360C5640,360,5520,360,5400,360C5280,360,5160,360,5040,360C4920,360,4800,360,4680,360C4560,360,4440,360,4320,360C4200,360,4080,360,3960,360C3840,360,3720,360,3600,360C3480,360,3360,360,3240,360C3120,360,3000,360,2880,360C2760,360,2640,360,2520,360C2400,360,2280,360,2160,360C2040,360,1920,360,1800,360C1680,360,1560,360,1440,360C1320,360,1200,360,1080,360C960,360,840,360,720,360C600,360,480,360,360,360C240,360,120,360,60,360L0,360Z"/></svg>