<svg width="1440" height="450" xmlns="http://www.w3.org/2000/svg">

 <g>
  <title>Layer 1</title>
  <g id="svg_3">
   <path fill="#f3f4f5" d="m1,129l60,-10.7c60,-10.3 180,-32.3 300,-16c120,15.7 240,69.7 360,48c120,-21.3 240,-117.3 360,-133.3c120,-16 240,48 300,80l60,32l0,96l-60,0c-60,0 -180,0 -300,0c-120,0 -240,0 -360,0c-120,0 -240,0 -360,0c-120,0 -240,0 -300,0l-60,0l0,-96z" id="svg_1"/>
   <path fill="#f3f4f5" d="m1,338l60,-10.7c60,-10.3 180,-32.3 300,-16c120,15.7 240,69.7 360,48c120,-21.3 240,-117.3 360,-133.3c120,-16 240,48 300,80l60,32l0,96l-60,0c-60,0 -180,0 -300,0c-120,0 -240,0 -360,0c-120,0 -240,0 -360,0c-120,0 -240,0 -300,0l-60,0l0,-96z" id="svg_2" transform="rotate(-180, 721, 328.737)"/>
  </g>
 </g>
</svg>